<?xml version="1.0" encoding="utf-8"?>
<!-- Generator: Adobe Illustrator 22.0.1, SVG Export Plug-In . SVG Version: 6.00 Build 0)  -->
<svg version="1.1" id="Layer_1" xmlns="http://www.w3.org/2000/svg" xmlns:xlink="http://www.w3.org/1999/xlink" x="0px" y="0px"
	 width="200px" height="200px" viewBox="0 0 200 200" style="enable-background:new 0 0 200 200;" xml:space="preserve">
<style type="text/css">
	.st0{fill:none;stroke:#575757;stroke-miterlimit:10;}
	.st1{fill:#575757;}
	.st2{fill:none;stroke:#575757;stroke-width:1.5;stroke-linecap:round;stroke-miterlimit:10;}
	.st3{fill:none;stroke:#3F3F3F;stroke-miterlimit:10;}
	.st4{fill:none;stroke:#4E4E4E;stroke-miterlimit:10;}
	.st5{fill:none;stroke:#7F7F7F;stroke-miterlimit:10;}
	.st6{fill:#4E4E4E;}
	.st7{fill:#555555;}
	.st8{fill:none;stroke:#AAAAAA;stroke-miterlimit:10;}
	.st9{fill:#AAAAAA;}
	.st10{fill:none;stroke:#FFFFFF;stroke-width:2;stroke-linecap:square;stroke-miterlimit:10;}
	.st11{fill:none;stroke:#539DE2;stroke-width:0.9683;stroke-miterlimit:10;}
	.st12{fill:#539DE2;}
	.st13{fill:none;stroke:#FFFFFF;stroke-miterlimit:10;}
	.st14{fill:#FFFFFF;}
	.st15{fill:#737373;}
	.st16{fill:none;stroke:#737373;stroke-miterlimit:10;}
	.st17{fill:#737373;stroke:#737373;stroke-width:0.4;stroke-miterlimit:10;}
	.st18{fill:none;stroke:#42A2EB;stroke-miterlimit:10;}
	.st19{fill:#222222;}
	.st20{fill:none;stroke:#222222;stroke-miterlimit:10;}
	.st21{fill:#EDB058;}
	.st22{fill:none;stroke:#EDB058;stroke-miterlimit:10;}
	.st23{fill:none;stroke:#666666;stroke-miterlimit:10;}
	.st24{fill:#666666;}
	.st25{fill:none;stroke:#666666;stroke-width:1.2;stroke-miterlimit:10;}
	.st26{fill:none;stroke:#222222;stroke-width:0.9838;stroke-miterlimit:10;}
	.st27{fill:none;stroke:#E78E88;stroke-miterlimit:10;}
	.st28{fill:none;stroke:#777777;stroke-miterlimit:10;}
</style>
<line class="st0" x1="28.3" y1="90" x2="17.3" y2="101"/>
<line class="st0" x1="28.3" y1="101" x2="17.3" y2="90"/>
<polygon class="st1" points="27.6,122.8 27.1,122.2 22.8,126.2 18.8,122.2 18.1,122.8 22.2,126.7 18.1,130.7 18.8,131.2 22.8,127.3 
	27.1,131.2 27.6,130.7 23.3,126.7 "/>
<polygon class="st1" points="28.5,151.7 27.8,151 22.6,155.8 17.8,151 17.1,151.7 21.9,156.5 17.1,161.3 17.8,162 22.6,157.2 
	27.8,162 28.5,161.3 23.3,156.5 "/>
<line class="st2" x1="73" y1="54" x2="61" y2="66"/>
<line class="st2" x1="61" y1="54" x2="73" y2="66"/>
<polyline class="st3" points="20.3,64 13.3,57.5 20.3,50 "/>
<line class="st3" x1="32.3" y1="57.5" x2="13.3" y2="57.5"/>
<g>
	<polyline class="st4" points="63.1,89.1 57.8,94.4 63.1,99.7 	"/>
</g>
<g>
	<polyline class="st4" points="75.8,99.7 81.1,94.4 75.8,89.1 	"/>
</g>
<g>
	<polyline class="st5" points="180.6,75.4 186.8,81.5 193,75.4 	"/>
</g>
<g>
	<polyline class="st5" points="193,56.3 186.8,50.2 180.6,56.3 	"/>
</g>
<path class="st6" d="M62.5,121.7l0.8,0.8l-6.1,6.2l6.1,6.2l-0.8,0.8l-6.7-7L62.5,121.7z"/>
<path class="st6" d="M77.9,135.7l-0.8-0.8l6.1-6.2l-6.1-6.2l0.8-0.8l6.7,7L77.9,135.7z"/>
<polyline class="st5" points="58.5,152.4 63.5,157.4 68.6,152.4 "/>
<path class="st7" d="M24.2,25.7c1-1.1,1.6-2.6,1.6-4.3c0-3.6-2.9-6.6-6.5-6.6s-6.5,2.9-6.5,6.6c0,3.6,2.9,6.6,6.5,6.6
	c1.6,0,3.1-0.6,4.2-1.6l4.2,4.3c0.1,0.1,0.2,0.1,0.4,0.1c0.1,0,0.3,0,0.4-0.1c0.2-0.2,0.2-0.5,0-0.7L24.2,25.7z M19.3,27
	c-3.1,0-5.5-2.5-5.5-5.6s2.5-5.6,5.5-5.6c3.1,0,5.5,2.5,5.5,5.6S22.3,27,19.3,27z"/>
<path class="st8" d="M31.5,189.5h-14v-14h14V189.5z"/>
<path class="st9" d="M67,190H52v-15h15V190z"/>
<path class="st10" d="M56.1,182.9l2,2l5-5"/>
<rect x="62.7" y="21.3" transform="matrix(0.7071 -0.7071 0.7071 0.7071 3.4096 54.2445)" class="st11" width="9" height="3.5"/>
<polyline class="st12" points="64.4,29 61,29 61,25.7 "/>
<circle class="st13" cx="107.3" cy="59.6" r="8.4"/>
<path class="st13" d="M103.6,59.5l2.7,2.8l5.2-5.1"/>
<path class="st13" d="M98.4,96.9l9.1-15.3c0.2-0.4,0.7-0.4,0.8,0l9.1,15.3c0.2,0.4,0,0.7-0.5,0.7H98.7
	C98.5,97.6,98.2,97.3,98.4,96.9z"/>
<g>
	<rect x="107.2" y="87.6" class="st14" width="1.5" height="5.4"/>
</g>
<g>
	<rect x="107.2" y="93.7" class="st14" width="1.5" height="1.5"/>
</g>
<path class="st15" d="M113.8,120.5v9.3h-11.6v-9.3H113.8 M115,119.4h-14V131h14V119.4L115,119.4z"/>
<line class="st16" x1="103.9" y1="117" x2="103.9" y2="120.5"/>
<line class="st16" x1="112.1" y1="117" x2="112.1" y2="120.5"/>
<rect x="101" y="118" class="st15" width="13.9" height="1.4"/>
<polygon class="st17" points="111.9,123 111.5,122.6 107.1,126.9 105.7,125.5 105.3,125.9 107.1,127.7 107.6,127.3 107.6,127.3 "/>
<path class="st16" d="M102.5,151.5"/>
<path class="st16" d="M102.5,160.3"/>
<line class="st16" x1="103.2" y1="155" x2="101.2" y2="156.6"/>
<line class="st16" x1="114.8" y1="156.6" x2="112.8" y2="155"/>
<polyline class="st16" points="103.2,158.1 103.2,151.5 112.8,151.5 112.8,158.1 "/>
<polygon class="st16" points="114.6,157 108,161.6 101.4,157 101.4,157.2 101.4,165.5 114.6,165.5 114.6,157.2 "/>
<path class="st16" d="M105.4,154.1h5.3H105.4z"/>
<path class="st16" d="M105.4,155.9h5.3H105.4z"/>
<path class="st16" d="M105.4,157.6h5.3H105.4z"/>
<path class="st16" d="M104,184.2h1.7v1l8.5,3.1l-8.5,3.1v6.7H104v-6.2C104,189.6,104,186.8,104,184.2L104,184.2z"/>
<path class="st18" d="M134,184.2h1.7v1l8.5,3.1l-8.5,3.1v6.7H134v-6.2C134,189.6,134,186.8,134,184.2L134,184.2z"/>
<polygon class="st19" points="153.4,25.7 159.3,25.7 156.4,28.7 "/>
<polygon class="st20" points="141.4,17.6 156.3,17.6 150.5,23.5 150.5,29.1 147.1,31.5 147.1,23.3 "/>
<path class="st19" d="M153.5,54.2l-0.8,1c1.4,1.2,2.4,3.1,2.4,5c0,3.6-3,6.6-6.6,6.6s-6.6-3-6.6-6.6c0-3.5,2.8-6.4,6.1-6.6l-1.8,2.5
	l1,0.7l2.9-4l-4-2.9l-0.6,1l2,1.4c-4.2,0.5-6.8,3.8-6.8,7.8c0,4.3,3.5,7.8,7.8,7.8s7.8-3.5,7.8-7.8
	C156.3,57.9,155.3,55.6,153.5,54.2z"/>
<g>
	<rect x="141.6" y="87.7" width="13.8" height="1.3"/>
	<rect x="141.6" y="91.5" width="11.5" height="1.3"/>
	<rect x="141.6" y="95.3" width="9.3" height="1.3"/>
	<rect x="141.6" y="99" width="6.5" height="1.3"/>
</g>
<polygon points="159.6,96.7 158,98.5 158,88 157,88 157,98.5 155.4,96.7 154.6,97.3 157.5,100.6 160.4,97.3 "/>
<g>
	<path class="st21" d="M153,124v8h-10v-8H153 M154,123h-12v10h12V123L154,123z"/>
</g>
<line class="st22" x1="142" y1="122.5" x2="154" y2="122.5"/>
<line class="st22" x1="144.5" y1="121" x2="144.5" y2="124"/>
<line class="st22" x1="151.5" y1="121" x2="151.5" y2="124"/>
<rect x="145" y="126" class="st21" width="2" height="2"/>
<rect x="149" y="126" class="st21" width="2" height="2"/>
<rect x="145" y="129" class="st21" width="2" height="2"/>
<rect x="149" y="129" class="st21" width="2" height="2"/>
<rect x="144" y="152.1" transform="matrix(0.7071 -0.7071 0.7071 0.7071 -65.3137 151.7151)" class="st23" width="13" height="5.2"/>
<polyline class="st24" points="146.5,163.4 141.6,163.4 141.6,158.5 "/>
<path class="st25" d="M193,28.1c-1.3,2.1-3.6,3.4-6.3,3.4c-4.1,0-7.4-3.3-7.4-7.4"/>
<path class="st25" d="M180.6,20c1.3-2,3.6-3.3,6.1-3.3c4.1,0,7.4,3.3,7.4,7.4"/>
<polyline class="st25" points="191.2,22.4 194.1,24.7 196.5,21.7 "/>
<polyline class="st25" points="182.2,25.4 179,23.4 177,26.7 "/>
<path class="st26" d="M186.5,99.9c-3.4,0-6.1,2.8-6.1,6.2c0,4.8,6.1,11.4,6.1,11.4s6.1-6.6,6.1-11.4
	C192.6,102.6,189.9,99.9,186.5,99.9z"/>
<circle class="st19" cx="186.5" cy="106" r="2.3"/>
<path class="st19" d="M193.1,136.9c0-0.2-0.1-0.3-0.3-0.4c-0.2-0.1-0.3,0-0.4,0.1l-4.8,5.7l-9.1-4.2c-0.2-0.1-0.3,0-0.5,0.1
	s-0.1,0.3-0.1,0.5l4.5,8.7c-0.5,0.4-0.8,0.9-0.8,1.5c0,0.9,0.8,1.7,2,1.9l-1,1.7c-0.1,0.2,0,0.4,0.1,0.6c0.1,0,0.1,0.1,0.2,0.1
	c0.1,0,0.3-0.1,0.3-0.2l1.2-2c1.2-0.2,2.1-1,2.1-1.9l6.2-2.1c0.2-0.1,0.3-0.2,0.3-0.4L193.1,136.9z M182.4,149
	c0-0.3,0.1-0.5,0.4-0.7l1,1.9C183,150,182.4,149.6,182.4,149z M184.7,150.1l-1.1-2.2c0.2,0,0.4-0.1,0.6-0.1c0.9,0,1.7,0.5,1.7,1.2
	C185.8,149.5,185.3,149.9,184.7,150.1z M192.3,146.2l-5.9,2c-0.4-0.7-1.3-1.2-2.3-1.2c-0.3,0-0.7,0.1-0.9,0.1l-4-7.7l8.3,3.8
	c0.2,0.1,0.4,0,0.5-0.1l4.3-5.1L192.3,146.2z"/>
<rect x="180.5" y="176.7" class="st27" width="7.7" height="7.4"/>
<rect x="179.5" y="174.7" class="st27" width="9.6" height="1.8"/>
<rect x="182.4" y="172.9" class="st27" width="3.8" height="1.8"/>
<rect x="102.9" y="21.4" class="st28" width="8.8" height="8.5"/>
<rect x="101.8" y="19.2" class="st28" width="11" height="2.1"/>
<rect x="105.1" y="17.1" class="st28" width="4.4" height="2.1"/>
</svg>
